<?xml version="1.0" encoding="UTF-8" standalone="no"?>
<!DOCTYPE svg PUBLIC "-//W3C//DTD SVG 1.1//EN"
 "http://www.w3.org/Graphics/SVG/1.1/DTD/svg11.dtd">
<!-- Generated by graphviz version 2.40.1 (20161225.0304)
 -->
<!-- Title: dependencies Pages: 1 -->
<svg width="504pt" height="284pt"
 viewBox="0.00 0.00 504.00 284.00" xmlns="http://www.w3.org/2000/svg" xmlns:xlink="http://www.w3.org/1999/xlink">
<g id="graph0" class="graph" transform="scale(1 1) rotate(0) translate(4 280)">
<title>dependencies</title>
<polygon fill="#ffffff" stroke="transparent" points="-4,4 -4,-280 500,-280 500,4 -4,4"/>
<text text-anchor="start" x="227.0091" y="-42.4" font-family="sans-serif" font-weight="bold" font-size="14.00" fill="#000000">Legend</text>
<polygon fill="#ffffb3" stroke="transparent" points="14,-10 14,-30 34,-30 34,-10 14,-10"/>
<text text-anchor="start" x="37.629" y="-15.4" font-family="sans-serif" font-size="14.00" fill="#000000"> &#160;Declarations</text>
<polygon fill="#8dd3c7" stroke="transparent" points="127,-10 127,-30 147,-30 147,-10 127,-10"/>
<text text-anchor="start" x="150.7251" y="-15.4" font-family="sans-serif" font-size="14.00" fill="#000000"> &#160;Module</text>
<polygon fill="#80b1d3" stroke="transparent" points="213,-10 213,-30 233,-30 233,-10 213,-10"/>
<text text-anchor="start" x="236.7812" y="-15.4" font-family="sans-serif" font-size="14.00" fill="#000000"> &#160;Bootstrap</text>
<polygon fill="#fdb462" stroke="transparent" points="310,-10 310,-30 330,-30 330,-10 310,-10"/>
<text text-anchor="start" x="333.6732" y="-15.4" font-family="sans-serif" font-size="14.00" fill="#000000"> &#160;Providers</text>
<polygon fill="#fb8072" stroke="transparent" points="406,-10 406,-30 426,-30 426,-10 406,-10"/>
<text text-anchor="start" x="429.7258" y="-15.4" font-family="sans-serif" font-size="14.00" fill="#000000"> &#160;Exports</text>
<g id="clust1" class="cluster">
<title>cluster_SampleModule</title>
<polygon fill="none" stroke="#000000" stroke-dasharray="1,5" points="109,-70 109,-268 387,-268 387,-70 109,-70"/>
</g>
<g id="clust3" class="cluster">
<title>cluster_SampleModule_imports</title>
<polygon fill="none" stroke="#000000" points="117,-78 117,-130 379,-130 379,-78 117,-78"/>
</g>
<g id="clust4" class="cluster">
<title>cluster_SampleModule_exports</title>
<polygon fill="none" stroke="#000000" points="196,-208 196,-260 314,-260 314,-208 196,-208"/>
</g>
<!-- SharedModule -->
<g id="node1" class="node">
<title>SharedModule</title>
<polygon fill="#8dd3c7" stroke="#000000" points="371.4231,-122 368.4231,-126 347.4231,-126 344.4231,-122 272.5769,-122 272.5769,-86 371.4231,-86 371.4231,-122"/>
<text text-anchor="middle" x="322" y="-99.8" font-family="Times,serif" font-size="14.00" fill="#000000">SharedModule</text>
</g>
<!-- SampleModule -->
<g id="node3" class="node">
<title>SampleModule</title>
<polygon fill="#8dd3c7" stroke="#000000" points="305.5438,-187 302.5438,-191 281.5438,-191 278.5438,-187 204.4562,-187 204.4562,-151 305.5438,-151 305.5438,-187"/>
<text text-anchor="middle" x="255" y="-164.8" font-family="Times,serif" font-size="14.00" fill="#000000">SampleModule</text>
</g>
<!-- SharedModule&#45;&gt;SampleModule -->
<g id="edge1" class="edge">
<title>SharedModule&#45;&gt;SampleModule</title>
<path fill="none" stroke="#000000" d="M289.2802,-122.1061C289.2802,-122.1061 289.2802,-140.991 289.2802,-140.991"/>
<polygon fill="#000000" stroke="#000000" points="285.7802,-140.9909 289.2802,-150.991 292.7802,-140.991 285.7802,-140.9909"/>
</g>
<!-- MultilingualModule -->
<g id="node2" class="node">
<title>MultilingualModule</title>
<polygon fill="#8dd3c7" stroke="#000000" points="254.5534,-122 251.5534,-126 230.5534,-126 227.5534,-122 125.4466,-122 125.4466,-86 254.5534,-86 254.5534,-122"/>
<text text-anchor="middle" x="190" y="-99.8" font-family="Times,serif" font-size="14.00" fill="#000000">MultilingualModule</text>
</g>
<!-- MultilingualModule&#45;&gt;SampleModule -->
<g id="edge2" class="edge">
<title>MultilingualModule&#45;&gt;SampleModule</title>
<path fill="none" stroke="#000000" d="M229.5025,-122.1061C229.5025,-122.1061 229.5025,-140.991 229.5025,-140.991"/>
<polygon fill="#000000" stroke="#000000" points="226.0025,-140.9909 229.5025,-150.991 233.0025,-140.991 226.0025,-140.9909"/>
</g>
<!-- SharedModule  -->
<g id="node4" class="node">
<title>SharedModule </title>
<polygon fill="#fb8072" stroke="#000000" points="305.9222,-252 204.0778,-252 204.0778,-216 305.9222,-216 305.9222,-252"/>
<text text-anchor="middle" x="255" y="-229.8" font-family="Times,serif" font-size="14.00" fill="#000000">SharedModule </text>
</g>
<!-- SampleModule&#45;&gt;SharedModule  -->
<g id="edge3" class="edge">
<title>SampleModule&#45;&gt;SharedModule </title>
<path fill="none" stroke="#000000" stroke-dasharray="5,2" d="M255,-187.1061C255,-187.1061 255,-205.991 255,-205.991"/>
<polygon fill="#000000" stroke="#000000" points="251.5001,-205.9909 255,-215.991 258.5001,-205.991 251.5001,-205.9909"/>
</g>
</g>
</svg>
