<?xml version="1.0" encoding="UTF-8" standalone="no"?>
<!DOCTYPE svg PUBLIC "-//W3C//DTD SVG 1.1//EN"
 "http://www.w3.org/Graphics/SVG/1.1/DTD/svg11.dtd">
<!-- Generated by graphviz version 2.40.1 (20161225.0304)
 -->
<!-- Title: dependencies Pages: 1 -->
<svg width="504pt" height="284pt"
 viewBox="0.00 0.00 504.00 284.00" xmlns="http://www.w3.org/2000/svg" xmlns:xlink="http://www.w3.org/1999/xlink">
<g id="graph0" class="graph" transform="scale(1 1) rotate(0) translate(4 280)">
<title>dependencies</title>
<polygon fill="#ffffff" stroke="transparent" points="-4,4 -4,-280 500,-280 500,4 -4,4"/>
<text text-anchor="start" x="227.0091" y="-42.4" font-family="sans-serif" font-weight="bold" font-size="14.00" fill="#000000">Legend</text>
<polygon fill="#ffffb3" stroke="transparent" points="14,-10 14,-30 34,-30 34,-10 14,-10"/>
<text text-anchor="start" x="37.629" y="-15.4" font-family="sans-serif" font-size="14.00" fill="#000000"> &#160;Declarations</text>
<polygon fill="#8dd3c7" stroke="transparent" points="127,-10 127,-30 147,-30 147,-10 127,-10"/>
<text text-anchor="start" x="150.7251" y="-15.4" font-family="sans-serif" font-size="14.00" fill="#000000"> &#160;Module</text>
<polygon fill="#80b1d3" stroke="transparent" points="213,-10 213,-30 233,-30 233,-10 213,-10"/>
<text text-anchor="start" x="236.7812" y="-15.4" font-family="sans-serif" font-size="14.00" fill="#000000"> &#160;Bootstrap</text>
<polygon fill="#fdb462" stroke="transparent" points="310,-10 310,-30 330,-30 330,-10 310,-10"/>
<text text-anchor="start" x="333.6732" y="-15.4" font-family="sans-serif" font-size="14.00" fill="#000000"> &#160;Providers</text>
<polygon fill="#fb8072" stroke="transparent" points="406,-10 406,-30 426,-30 426,-10 406,-10"/>
<text text-anchor="start" x="429.7258" y="-15.4" font-family="sans-serif" font-size="14.00" fill="#000000"> &#160;Exports</text>
<g id="clust1" class="cluster">
<title>cluster_WebModule</title>
<polygon fill="none" stroke="#000000" stroke-dasharray="1,5" points="115.5,-70 115.5,-268 380.5,-268 380.5,-70 115.5,-70"/>
</g>
<g id="clust3" class="cluster">
<title>cluster_WebModule_imports</title>
<polygon fill="none" stroke="#000000" points="123.5,-78 123.5,-130 372.5,-130 372.5,-78 123.5,-78"/>
</g>
<g id="clust5" class="cluster">
<title>cluster_WebModule_bootstrap</title>
<polygon fill="none" stroke="#000000" points="184.5,-208 184.5,-260 308.5,-260 308.5,-208 184.5,-208"/>
</g>
<!-- AnalyticsModule -->
<g id="node1" class="node">
<title>AnalyticsModule</title>
<polygon fill="#8dd3c7" stroke="#000000" points="364.2022,-122 361.2022,-126 340.2022,-126 337.2022,-122 250.7978,-122 250.7978,-86 364.2022,-86 364.2022,-122"/>
<text text-anchor="middle" x="307.5" y="-99.8" font-family="Times,serif" font-size="14.00" fill="#000000">AnalyticsModule</text>
</g>
<!-- WebModule -->
<g id="node3" class="node">
<title>WebModule</title>
<polygon fill="#8dd3c7" stroke="#000000" points="289.479,-187 286.479,-191 265.479,-191 262.479,-187 203.521,-187 203.521,-151 289.479,-151 289.479,-187"/>
<text text-anchor="middle" x="246.5" y="-164.8" font-family="Times,serif" font-size="14.00" fill="#000000">WebModule</text>
</g>
<!-- AnalyticsModule&#45;&gt;WebModule -->
<g id="edge1" class="edge">
<title>AnalyticsModule&#45;&gt;WebModule</title>
<path fill="none" stroke="#000000" d="M270.1943,-122.1061C270.1943,-122.1061 270.1943,-140.991 270.1943,-140.991"/>
<polygon fill="#000000" stroke="#000000" points="266.6943,-140.9909 270.1943,-150.991 273.6943,-140.991 266.6943,-140.9909"/>
</g>
<!-- SampleModule -->
<g id="node2" class="node">
<title>SampleModule</title>
<polygon fill="#8dd3c7" stroke="#000000" points="233.0438,-122 230.0438,-126 209.0438,-126 206.0438,-122 131.9562,-122 131.9562,-86 233.0438,-86 233.0438,-122"/>
<text text-anchor="middle" x="182.5" y="-99.8" font-family="Times,serif" font-size="14.00" fill="#000000">SampleModule</text>
</g>
<!-- SampleModule&#45;&gt;WebModule -->
<g id="edge2" class="edge">
<title>SampleModule&#45;&gt;WebModule</title>
<path fill="none" stroke="#000000" d="M218.391,-122.1061C218.391,-122.1061 218.391,-140.991 218.391,-140.991"/>
<polygon fill="#000000" stroke="#000000" points="214.891,-140.9909 218.391,-150.991 221.891,-140.991 214.891,-140.9909"/>
</g>
<!-- AppComponent  -->
<g id="node4" class="node">
<title>AppComponent </title>
<polygon fill="#80b1d3" stroke="#000000" points="300.939,-252 192.061,-252 192.061,-216 300.939,-216 300.939,-252"/>
<text text-anchor="middle" x="246.5" y="-229.8" font-family="Times,serif" font-size="14.00" fill="#000000">AppComponent </text>
</g>
<!-- WebModule&#45;&gt;AppComponent  -->
<g id="edge3" class="edge">
<title>WebModule&#45;&gt;AppComponent </title>
<path fill="none" stroke="#000000" stroke-dasharray="1,5" d="M246.5,-187.1061C246.5,-187.1061 246.5,-205.991 246.5,-205.991"/>
<polygon fill="#000000" stroke="#000000" points="243.0001,-205.9909 246.5,-215.991 250.0001,-205.991 243.0001,-205.9909"/>
</g>
</g>
</svg>
