<?xml version="1.0" encoding="UTF-8" standalone="no"?>
<!DOCTYPE svg PUBLIC "-//W3C//DTD SVG 1.1//EN"
 "http://www.w3.org/Graphics/SVG/1.1/DTD/svg11.dtd">
<!-- Generated by graphviz version 2.40.1 (20161225.0304)
 -->
<!-- Title: dependencies Pages: 1 -->
<svg width="620pt" height="355pt"
 viewBox="0.00 0.00 620.00 355.00" xmlns="http://www.w3.org/2000/svg" xmlns:xlink="http://www.w3.org/1999/xlink">
<g id="graph0" class="graph" transform="scale(1 1) rotate(0) translate(4 351)">
<title>dependencies</title>
<polygon fill="#ffffff" stroke="transparent" points="-4,4 -4,-351 616,-351 616,4 -4,4"/>
<text text-anchor="start" x="285.0091" y="-42.4" font-family="sans-serif" font-weight="bold" font-size="14.00" fill="#000000">Legend</text>
<polygon fill="#ffffb3" stroke="transparent" points="72,-10 72,-30 92,-30 92,-10 72,-10"/>
<text text-anchor="start" x="95.629" y="-15.4" font-family="sans-serif" font-size="14.00" fill="#000000"> &#160;Declarations</text>
<polygon fill="#8dd3c7" stroke="transparent" points="185,-10 185,-30 205,-30 205,-10 185,-10"/>
<text text-anchor="start" x="208.7251" y="-15.4" font-family="sans-serif" font-size="14.00" fill="#000000"> &#160;Module</text>
<polygon fill="#80b1d3" stroke="transparent" points="271,-10 271,-30 291,-30 291,-10 271,-10"/>
<text text-anchor="start" x="294.7812" y="-15.4" font-family="sans-serif" font-size="14.00" fill="#000000"> &#160;Bootstrap</text>
<polygon fill="#fdb462" stroke="transparent" points="368,-10 368,-30 388,-30 388,-10 368,-10"/>
<text text-anchor="start" x="391.6732" y="-15.4" font-family="sans-serif" font-size="14.00" fill="#000000"> &#160;Providers</text>
<polygon fill="#fb8072" stroke="transparent" points="464,-10 464,-30 484,-30 484,-10 464,-10"/>
<text text-anchor="start" x="487.7258" y="-15.4" font-family="sans-serif" font-size="14.00" fill="#000000"> &#160;Exports</text>
<g id="clust7" class="cluster">
<title>cluster_CoreModule</title>
<polygon fill="none" stroke="#000000" stroke-dasharray="1,5" points="8,-70 8,-198 138,-198 138,-70 8,-70"/>
</g>
<g id="clust9" class="cluster">
<title>cluster_CoreModule_imports</title>
<polygon fill="none" stroke="#000000" points="16,-78 16,-130 130,-130 130,-78 16,-78"/>
</g>
<g id="clust19" class="cluster">
<title>cluster_PuzzleModule</title>
<polygon fill="none" stroke="#000000" stroke-dasharray="1,5" points="442,-70 442,-198 604,-198 604,-70 442,-70"/>
</g>
<g id="clust21" class="cluster">
<title>cluster_PuzzleModule_imports</title>
<polygon fill="none" stroke="#000000" points="450,-78 450,-130 596,-130 596,-78 450,-78"/>
</g>
<g id="clust25" class="cluster">
<title>cluster_SampleModule</title>
<polygon fill="none" stroke="#000000" stroke-dasharray="1,5" points="146,-146 146,-271 280,-271 280,-146 146,-146"/>
</g>
<g id="clust28" class="cluster">
<title>cluster_SampleModule_exports</title>
<polygon fill="none" stroke="#000000" points="154,-211 154,-263 272,-263 272,-211 154,-211"/>
</g>
<g id="clust37" class="cluster">
<title>cluster_WebModule</title>
<polygon fill="none" stroke="#000000" stroke-dasharray="1,5" points="288,-138 288,-339 434,-339 434,-138 288,-138"/>
</g>
<g id="clust39" class="cluster">
<title>cluster_WebModule_imports</title>
<polygon fill="none" stroke="#000000" points="296,-146 296,-198 426,-198 426,-146 296,-146"/>
</g>
<g id="clust41" class="cluster">
<title>cluster_WebModule_bootstrap</title>
<polygon fill="none" stroke="#000000" points="297,-279 297,-331 421,-331 421,-279 297,-279"/>
</g>
<!-- SharedModule -->
<g id="node1" class="node">
<title>SharedModule</title>
<polygon fill="#8dd3c7" stroke="#000000" points="122.4231,-122 119.4231,-126 98.4231,-126 95.4231,-122 23.5769,-122 23.5769,-86 122.4231,-86 122.4231,-122"/>
<text text-anchor="middle" x="73" y="-99.8" font-family="Times,serif" font-size="14.00" fill="#000000">SharedModule</text>
</g>
<!-- CoreModule -->
<g id="node2" class="node">
<title>CoreModule</title>
<polygon fill="#8dd3c7" stroke="#000000" points="116.2619,-190 113.2619,-194 92.2619,-194 89.2619,-190 29.7381,-190 29.7381,-154 116.2619,-154 116.2619,-190"/>
<text text-anchor="middle" x="73" y="-167.8" font-family="Times,serif" font-size="14.00" fill="#000000">CoreModule</text>
</g>
<!-- SharedModule&#45;&gt;CoreModule -->
<g id="edge1" class="edge">
<title>SharedModule&#45;&gt;CoreModule</title>
<path fill="none" stroke="#000000" d="M73,-122.2228C73,-122.2228 73,-143.7269 73,-143.7269"/>
<polygon fill="#000000" stroke="#000000" points="69.5001,-143.7269 73,-153.7269 76.5001,-143.727 69.5001,-143.7269"/>
</g>
<!-- SampleModule -->
<g id="node5" class="node">
<title>SampleModule</title>
<polygon fill="#8dd3c7" stroke="#000000" points="267.5438,-190 264.5438,-194 243.5438,-194 240.5438,-190 166.4562,-190 166.4562,-154 267.5438,-154 267.5438,-190"/>
<text text-anchor="middle" x="217" y="-167.8" font-family="Times,serif" font-size="14.00" fill="#000000">SampleModule</text>
</g>
<!-- SharedModule&#45;&gt;SampleModule -->
<g id="edge3" class="edge">
<title>SharedModule&#45;&gt;SampleModule</title>
<path fill="none" stroke="#000000" d="M122.4948,-110C158.1757,-110 200.0762,-110 200.0762,-110 200.0762,-110 200.0762,-143.7333 200.0762,-143.7333"/>
<polygon fill="#000000" stroke="#000000" points="196.5763,-143.7333 200.0762,-153.7333 203.5763,-143.7333 196.5763,-143.7333"/>
</g>
<!-- MultilingualModule -->
<g id="node3" class="node">
<title>MultilingualModule</title>
<polygon fill="#8dd3c7" stroke="#000000" points="587.5534,-122 584.5534,-126 563.5534,-126 560.5534,-122 458.4466,-122 458.4466,-86 587.5534,-86 587.5534,-122"/>
<text text-anchor="middle" x="523" y="-99.8" font-family="Times,serif" font-size="14.00" fill="#000000">MultilingualModule</text>
</g>
<!-- PuzzleModule -->
<g id="node4" class="node">
<title>PuzzleModule</title>
<polygon fill="#8dd3c7" stroke="#000000" points="571.3669,-190 568.3669,-194 547.3669,-194 544.3669,-190 474.6331,-190 474.6331,-154 571.3669,-154 571.3669,-190"/>
<text text-anchor="middle" x="523" y="-167.8" font-family="Times,serif" font-size="14.00" fill="#000000">PuzzleModule</text>
</g>
<!-- MultilingualModule&#45;&gt;PuzzleModule -->
<g id="edge2" class="edge">
<title>MultilingualModule&#45;&gt;PuzzleModule</title>
<path fill="none" stroke="#000000" d="M523,-122.2228C523,-122.2228 523,-143.7269 523,-143.7269"/>
<polygon fill="#000000" stroke="#000000" points="519.5001,-143.7269 523,-153.7269 526.5001,-143.727 519.5001,-143.7269"/>
</g>
<!-- MultilingualModule&#45;&gt;SampleModule -->
<g id="edge4" class="edge">
<title>MultilingualModule&#45;&gt;SampleModule</title>
<path fill="none" stroke="#000000" d="M458.1257,-98C372.8964,-98 233.9238,-98 233.9238,-98 233.9238,-98 233.9238,-143.7079 233.9238,-143.7079"/>
<polygon fill="#000000" stroke="#000000" points="230.4239,-143.7078 233.9238,-153.7079 237.4239,-143.7079 230.4239,-143.7078"/>
</g>
<!-- SharedModule  -->
<g id="node6" class="node">
<title>SharedModule </title>
<polygon fill="#fb8072" stroke="#000000" points="263.9222,-255 162.0778,-255 162.0778,-219 263.9222,-219 263.9222,-255"/>
<text text-anchor="middle" x="213" y="-232.8" font-family="Times,serif" font-size="14.00" fill="#000000">SharedModule </text>
</g>
<!-- SampleModule&#45;&gt;SharedModule  -->
<g id="edge5" class="edge">
<title>SampleModule&#45;&gt;SharedModule </title>
<path fill="none" stroke="#000000" stroke-dasharray="5,2" d="M215.0949,-190.1061C215.0949,-190.1061 215.0949,-208.991 215.0949,-208.991"/>
<polygon fill="#000000" stroke="#000000" points="211.5949,-208.9909 215.0949,-218.991 218.5949,-208.991 211.5949,-208.9909"/>
</g>
<!-- WebModule -->
<g id="node8" class="node">
<title>WebModule</title>
<polygon fill="#8dd3c7" stroke="#000000" points="401.979,-255 398.979,-259 377.979,-259 374.979,-255 316.021,-255 316.021,-219 401.979,-219 401.979,-255"/>
<text text-anchor="middle" x="359" y="-232.8" font-family="Times,serif" font-size="14.00" fill="#000000">WebModule</text>
</g>
<!-- SampleModule&#45;&gt;WebModule -->
<g id="edge7" class="edge">
<title>SampleModule&#45;&gt;WebModule</title>
<path fill="none" stroke="#000000" d="M267.5716,-172C278.1063,-172 286.0852,-172 286.0852,-172 286.0852,-172 286.0852,-237 286.0852,-237 286.0852,-237 305.7424,-237 305.7424,-237"/>
<polygon fill="#000000" stroke="#000000" points="305.7425,-240.5001 315.7424,-237 305.7424,-233.5001 305.7425,-240.5001"/>
</g>
<!-- AnalyticsModule -->
<g id="node7" class="node">
<title>AnalyticsModule</title>
<polygon fill="#8dd3c7" stroke="#000000" points="417.7022,-190 414.7022,-194 393.7022,-194 390.7022,-190 304.2978,-190 304.2978,-154 417.7022,-154 417.7022,-190"/>
<text text-anchor="middle" x="361" y="-167.8" font-family="Times,serif" font-size="14.00" fill="#000000">AnalyticsModule</text>
</g>
<!-- AnalyticsModule&#45;&gt;WebModule -->
<g id="edge6" class="edge">
<title>AnalyticsModule&#45;&gt;WebModule</title>
<path fill="none" stroke="#000000" d="M359,-190.1061C359,-190.1061 359,-208.991 359,-208.991"/>
<polygon fill="#000000" stroke="#000000" points="355.5001,-208.9909 359,-218.991 362.5001,-208.991 355.5001,-208.9909"/>
</g>
<!-- AppComponent  -->
<g id="node9" class="node">
<title>AppComponent </title>
<polygon fill="#80b1d3" stroke="#000000" points="413.439,-323 304.561,-323 304.561,-287 413.439,-287 413.439,-323"/>
<text text-anchor="middle" x="359" y="-300.8" font-family="Times,serif" font-size="14.00" fill="#000000">AppComponent </text>
</g>
<!-- WebModule&#45;&gt;AppComponent  -->
<g id="edge8" class="edge">
<title>WebModule&#45;&gt;AppComponent </title>
<path fill="none" stroke="#000000" stroke-dasharray="1,5" d="M359,-255.2228C359,-255.2228 359,-276.7269 359,-276.7269"/>
<polygon fill="#000000" stroke="#000000" points="355.5001,-276.7269 359,-286.7269 362.5001,-276.727 355.5001,-276.7269"/>
</g>
</g>
</svg>
